<svg xmlns="http://www.w3.org/2000/svg" xmlns:xlink="http://www.w3.org/1999/xlink" width="500" zoomAndPan="magnify" viewBox="0 0 375 374.999991" height="500" preserveAspectRatio="xMidYMid meet" version="1.0"><defs><clipPath id="c60365487c"><path d="M 39.546875 183 L 175 183 L 175 375 L 39.546875 375 Z M 39.546875 183 " clip-rule="nonzero"/></clipPath><clipPath id="e33319ae5f"><path d="M 257 0 L 335.796875 0 L 335.796875 99 L 257 99 Z M 257 0 " clip-rule="nonzero"/></clipPath></defs><path fill="#ffffff" d="M 109.5625 352.929688 C 107.6875 352.929688 106.136719 351.441406 106.078125 349.550781 C 105.460938 328.550781 106.90625 324.53125 107.382812 323.199219 C 110.695312 314.019531 124.359375 309.339844 125.910156 308.84375 C 133.820312 306.058594 141.78125 303.546875 148.804688 301.328125 C 162.898438 296.871094 178.863281 291.835938 180.675781 288.058594 C 184.160156 280.785156 233.0625 231.699219 244.019531 220.742188 L 258.792969 189.109375 C 258.75 189.109375 258.707031 189.109375 258.664062 189.109375 C 253.628906 189.109375 243.234375 192.242188 229.761719 213.054688 L 229.5 213.460938 L 229.132812 213.785156 C 221.527344 220.4375 183.078125 253.746094 172.707031 256.121094 C 170.824219 256.546875 168.960938 255.378906 168.53125 253.5 C 168.105469 251.628906 169.273438 249.757812 171.15625 249.332031 C 177.800781 247.8125 207.042969 223.839844 224.1875 208.867188 C 247.261719 173.535156 264.8125 183.261719 265.542969 183.699219 L 268.277344 185.296875 L 249.828125 224.808594 L 249.394531 225.242188 C 226.511719 248.097656 189.324219 286.179688 186.972656 291.070312 C 183.996094 297.28125 172.566406 301.136719 150.921875 307.972656 C 143.953125 310.175781 136.050781 312.671875 128.167969 315.445312 C 125.007812 316.484375 115.789062 320.511719 113.960938 325.574219 C 113.515625 326.808594 112.539062 331.59375 113.0625 349.359375 C 113.125 351.285156 111.609375 352.882812 109.683594 352.945312 C 109.632812 352.929688 109.597656 352.929688 109.5625 352.929688 Z M 109.5625 352.929688 " fill-opacity="1" fill-rule="nonzero"/><g clip-path="url(#c60365487c)"><path fill="#ffffff" d="M 110.667969 374.949219 L 39.546875 374.949219 L 39.695312 371.328125 C 39.824219 368.109375 43.222656 292.3125 71.398438 269.023438 C 82.558594 259.800781 92.0625 253.046875 100.449219 247.097656 C 112.3125 238.675781 120.894531 232.585938 126.339844 224.859375 C 128.0625 222.414062 130.023438 219.484375 132.105469 216.394531 C 145.625 196.234375 155.894531 182.054688 164.824219 183.289062 C 168.578125 183.800781 171.511719 185.871094 173.078125 189.101562 C 176.101562 195.320312 174.011719 205.386719 167.347656 216.714844 L 166.554688 218.0625 C 158.726562 231.375 149.839844 246.472656 151.773438 258.292969 C 153.917969 271.414062 153.488281 275.09375 153.308594 275.914062 L 146.503906 274.398438 C 146.503906 274.398438 146.488281 274.449219 146.46875 274.582031 C 146.488281 274.460938 146.84375 271.371094 144.890625 259.410156 C 142.558594 245.105469 152.113281 228.863281 160.546875 214.53125 L 161.339844 213.191406 C 167.269531 203.089844 168.359375 195.339844 166.808594 192.128906 C 166.433594 191.355469 165.761719 190.441406 163.871094 190.179688 C 163.375 190.109375 160.484375 190.214844 153.140625 199.027344 C 148.046875 205.136719 142.652344 213.175781 137.898438 220.265625 C 135.796875 223.398438 133.8125 226.355469 132.042969 228.871094 C 125.910156 237.570312 116.929688 243.949219 104.492188 252.769531 C 96.199219 258.660156 86.808594 265.324219 75.851562 274.382812 C 53.324219 293 47.90625 352.640625 46.871094 367.988281 L 110.675781 367.988281 C 112.601562 367.988281 114.160156 369.546875 114.160156 371.46875 C 114.160156 373.390625 112.59375 374.949219 110.667969 374.949219 Z M 110.667969 374.949219 " fill-opacity="1" fill-rule="nonzero"/></g><path fill="#ffffff" d="M 164.351562 248.316406 C 162.90625 248.316406 161.554688 247.410156 161.058594 245.976562 C 160.433594 244.15625 161.390625 242.171875 163.210938 241.546875 C 167.820312 239.816406 204.996094 209.269531 215.832031 194.269531 C 226.03125 180.15625 238.375 183.191406 243.472656 186.769531 L 245.902344 188.472656 L 241.09375 198.324219 C 240.25 200.054688 238.167969 200.769531 236.433594 199.925781 C 234.699219 199.082031 233.984375 197 234.828125 195.269531 L 236.796875 191.242188 C 233.4375 190.214844 227.441406 190.09375 221.484375 198.339844 C 211.007812 212.828125 172.304688 245.765625 165.492188 248.113281 C 165.109375 248.253906 164.726562 248.316406 164.351562 248.316406 Z M 164.351562 248.316406 " fill-opacity="1" fill-rule="nonzero"/><path fill="#ffffff" d="M 155.527344 234.039062 C 154.308594 234.039062 153.113281 233.394531 152.480469 232.253906 C 151.546875 230.574219 152.148438 228.453125 153.828125 227.523438 C 163.480469 222.152344 173.777344 204.8125 175.257812 202.253906 C 179.230469 189.363281 184.152344 182.375 190.285156 180.90625 C 194.691406 179.851562 198.359375 182.148438 199.820312 183.679688 L 201.25 185.167969 L 186.949219 230.453125 C 186.371094 232.289062 184.414062 233.308594 182.574219 232.722656 C 180.738281 232.148438 179.71875 230.191406 180.300781 228.355469 L 193.148438 187.664062 C 192.757812 187.578125 192.3125 187.570312 191.84375 187.691406 C 190.25 188.109375 186.078125 190.589844 181.800781 204.664062 L 181.6875 205.03125 L 181.503906 205.363281 C 181.007812 206.242188 169.300781 226.878906 157.210938 233.601562 C 156.6875 233.890625 156.101562 234.039062 155.527344 234.039062 Z M 155.527344 234.039062 " fill-opacity="1" fill-rule="nonzero"/><path fill="#ffffff" d="M 177.332031 264.992188 C 176.101562 264.992188 174.917969 264.351562 174.28125 263.203125 C 167.792969 251.515625 154.089844 244.460938 153.953125 244.390625 C 152.234375 243.519531 151.554688 241.425781 152.417969 239.710938 C 153.289062 237.996094 155.378906 237.308594 157.097656 238.179688 C 157.730469 238.5 172.828125 246.234375 180.371094 259.816406 C 181.304688 261.496094 180.703125 263.621094 179.011719 264.550781 C 178.480469 264.847656 177.898438 264.992188 177.332031 264.992188 Z M 177.332031 264.992188 " fill-opacity="1" fill-rule="nonzero"/><path fill="#ffffff" d="M 140.832031 374.949219 L 110.667969 374.949219 C 108.742188 374.949219 107.183594 373.390625 107.183594 371.46875 C 107.183594 369.546875 108.742188 367.988281 110.667969 367.988281 L 133.863281 367.988281 L 133.863281 352.917969 L 45.144531 352.917969 C 43.222656 352.917969 41.664062 351.363281 41.664062 349.4375 C 41.664062 347.515625 43.222656 345.960938 45.144531 345.960938 L 140.84375 345.960938 L 140.84375 374.949219 Z M 140.832031 374.949219 " fill-opacity="1" fill-rule="nonzero"/><path fill="#ffffff" d="M 223.375 187.585938 L 166.964844 187.585938 C 122.855469 187.585938 84.082031 159.425781 70.484375 117.515625 L 64.292969 98.417969 C 63.699219 96.589844 64.703125 94.625 66.53125 94.03125 C 68.359375 93.441406 70.328125 94.441406 70.921875 96.269531 L 77.113281 115.367188 C 89.78125 154.394531 125.886719 180.625 166.964844 180.625 L 223.375 180.625 C 264.453125 180.625 300.5625 154.402344 313.226562 115.367188 L 319.429688 96.269531 C 320.019531 94.441406 321.988281 93.441406 323.816406 94.03125 C 325.648438 94.625 326.648438 96.589844 326.058594 98.417969 L 319.863281 117.515625 C 306.265625 159.433594 267.488281 187.585938 223.375 187.585938 Z M 223.375 187.585938 " fill-opacity="1" fill-rule="nonzero"/><path fill="#ffffff" d="M 148.828125 144.207031 L 145.34375 144.207031 C 109.613281 144.207031 80.546875 115.175781 80.546875 79.484375 L 80.546875 55.949219 L 84.03125 55.949219 C 119.761719 55.949219 148.828125 84.984375 148.828125 120.671875 Z M 87.515625 63.015625 L 87.515625 79.484375 C 87.515625 110.171875 111.589844 135.339844 141.859375 137.140625 L 141.859375 120.671875 C 141.859375 89.988281 117.785156 64.816406 87.515625 63.015625 Z M 87.515625 63.015625 " fill-opacity="1" fill-rule="nonzero"/><path fill="#ffffff" d="M 145.34375 144.207031 C 144.292969 144.207031 143.246094 143.730469 142.558594 142.824219 L 81.242188 61.519531 C 80.085938 59.988281 80.390625 57.804688 81.929688 56.648438 C 83.464844 55.488281 85.652344 55.792969 86.808594 57.335938 L 148.125 138.628906 C 149.28125 140.160156 148.976562 142.34375 147.4375 143.503906 C 146.808594 143.980469 146.078125 144.207031 145.34375 144.207031 Z M 145.34375 144.207031 " fill-opacity="1" fill-rule="nonzero"/><path fill="#ffffff" d="M 107.871094 94.527344 C 105.945312 94.527344 104.386719 92.972656 104.386719 91.046875 L 104.386719 64.234375 C 104.386719 62.3125 105.945312 60.753906 107.871094 60.753906 C 109.796875 60.753906 111.355469 62.3125 111.355469 64.234375 L 111.355469 91.046875 C 111.355469 92.972656 109.796875 94.527344 107.871094 94.527344 Z M 107.871094 94.527344 " fill-opacity="1" fill-rule="nonzero"/><path fill="#ffffff" d="M 131.6875 126.101562 C 129.761719 126.101562 128.203125 124.542969 128.203125 122.621094 L 128.203125 82.261719 C 128.203125 80.339844 129.761719 78.78125 131.6875 78.78125 C 133.613281 78.78125 135.171875 80.339844 135.171875 82.261719 L 135.171875 122.621094 C 135.171875 124.542969 133.613281 126.101562 131.6875 126.101562 Z M 131.6875 126.101562 " fill-opacity="1" fill-rule="nonzero"/><path fill="#ffffff" d="M 107.113281 93.519531 C 106.792969 93.519531 106.46875 93.476562 106.148438 93.378906 L 83.195312 86.765625 C 81.347656 86.238281 80.277344 84.304688 80.808594 82.460938 C 81.339844 80.617188 83.273438 79.546875 85.121094 80.078125 L 108.074219 86.6875 C 109.917969 87.21875 110.992188 89.152344 110.460938 90.996094 C 110.015625 92.527344 108.621094 93.519531 107.113281 93.519531 Z M 107.113281 93.519531 " fill-opacity="1" fill-rule="nonzero"/><path fill="#ffffff" d="M 130.816406 126.839844 C 130.414062 126.839844 130.015625 126.773438 129.621094 126.632812 L 90.449219 112.355469 C 88.640625 111.695312 87.714844 109.703125 88.367188 107.890625 C 89.03125 106.082031 91.027344 105.160156 92.835938 105.8125 L 132.007812 120.089844 C 133.820312 120.75 134.746094 122.742188 134.089844 124.554688 C 133.578125 125.960938 132.246094 126.839844 130.816406 126.839844 Z M 130.816406 126.839844 " fill-opacity="1" fill-rule="nonzero"/><path fill="#ffffff" d="M 186.503906 172.089844 L 162.941406 172.089844 L 162.941406 168.613281 C 162.941406 132.921875 192.007812 103.890625 227.738281 103.890625 L 251.300781 103.890625 L 251.300781 107.371094 C 251.300781 143.058594 222.234375 172.089844 186.503906 172.089844 Z M 170.015625 165.132812 L 186.503906 165.132812 C 217.226562 165.132812 242.425781 141.082031 244.230469 110.851562 L 227.738281 110.851562 C 197.027344 110.851562 171.816406 134.898438 170.015625 165.132812 Z M 170.015625 165.132812 " fill-opacity="1" fill-rule="nonzero"/><path fill="#ffffff" d="M 166.425781 172.089844 C 165.371094 172.089844 164.324219 171.613281 163.636719 170.707031 C 162.480469 169.175781 162.785156 166.992188 164.324219 165.835938 L 245.71875 104.59375 C 247.261719 103.4375 249.4375 103.742188 250.597656 105.28125 C 251.753906 106.820312 251.449219 108.996094 249.910156 110.152344 L 168.515625 171.394531 C 167.898438 171.867188 167.15625 172.089844 166.425781 172.089844 Z M 166.425781 172.089844 " fill-opacity="1" fill-rule="nonzero"/><path fill="#ffffff" d="M 243.007812 134.671875 L 216.164062 134.671875 C 214.238281 134.671875 212.679688 133.113281 212.679688 131.191406 C 212.679688 129.269531 214.238281 127.710938 216.164062 127.710938 L 243.007812 127.710938 C 244.933594 127.710938 246.492188 129.269531 246.492188 131.191406 C 246.492188 133.113281 244.933594 134.671875 243.007812 134.671875 Z M 243.007812 134.671875 " fill-opacity="1" fill-rule="nonzero"/><path fill="#ffffff" d="M 224.960938 158.457031 L 184.550781 158.457031 C 182.628906 158.457031 181.066406 156.902344 181.066406 154.976562 C 181.066406 153.054688 182.628906 151.496094 184.550781 151.496094 L 224.960938 151.496094 C 226.886719 151.496094 228.445312 153.054688 228.445312 154.976562 C 228.445312 156.902344 226.886719 158.457031 224.960938 158.457031 Z M 224.960938 158.457031 " fill-opacity="1" fill-rule="nonzero"/><path fill="#ffffff" d="M 217.183594 133.90625 C 216.859375 133.90625 216.539062 133.863281 216.214844 133.765625 C 214.367188 133.234375 213.296875 131.304688 213.828125 129.460938 L 220.449219 106.535156 C 220.980469 104.691406 222.914062 103.621094 224.761719 104.152344 C 226.605469 104.679688 227.679688 106.613281 227.148438 108.457031 L 220.527344 131.382812 C 220.082031 132.914062 218.6875 133.90625 217.183594 133.90625 Z M 217.183594 133.90625 " fill-opacity="1" fill-rule="nonzero"/><path fill="#ffffff" d="M 183.8125 157.589844 C 183.410156 157.589844 183.011719 157.519531 182.617188 157.378906 C 180.804688 156.71875 179.882812 154.726562 180.535156 152.917969 L 194.832031 113.789062 C 195.492188 111.980469 197.496094 111.058594 199.300781 111.710938 C 201.109375 112.371094 202.035156 114.363281 201.382812 116.175781 L 187.085938 155.300781 C 186.574219 156.71875 185.238281 157.589844 183.8125 157.589844 Z M 183.8125 157.589844 " fill-opacity="1" fill-rule="nonzero"/><path fill="#ffffff" d="M 277.441406 112 C 276.695312 112 275.945312 111.761719 275.308594 111.269531 C 273.792969 110.085938 273.515625 107.902344 274.699219 106.386719 L 292.277344 83.835938 C 298.332031 76.066406 296.929688 64.824219 289.148438 58.777344 C 285.378906 55.847656 280.699219 54.558594 275.960938 55.152344 C 271.222656 55.742188 267 58.132812 264.0625 61.902344 L 246.484375 84.453125 C 245.300781 85.96875 243.113281 86.246094 241.597656 85.0625 C 240.082031 83.878906 239.804688 81.695312 240.988281 80.179688 L 258.566406 57.628906 C 262.644531 52.402344 268.515625 49.070312 275.097656 48.25 C 281.675781 47.433594 288.191406 49.226562 293.433594 53.296875 C 298.671875 57.367188 302.007812 63.234375 302.824219 69.8125 C 303.644531 76.386719 301.851562 82.894531 297.773438 88.125 L 280.195312 110.675781 C 279.507812 111.539062 278.480469 112 277.441406 112 Z M 277.441406 112 " fill-opacity="1" fill-rule="nonzero"/><g clip-path="url(#e33319ae5f)"><path fill="#ffffff" d="M 260.585938 98.894531 C 259.839844 98.894531 259.089844 98.652344 258.453125 98.164062 C 256.9375 96.980469 256.660156 94.796875 257.84375 93.285156 L 329.140625 1.78125 C 330.324219 0.269531 332.511719 -0.0078125 334.027344 1.171875 C 335.542969 2.355469 335.820312 4.539062 334.636719 6.054688 L 263.332031 97.546875 C 262.652344 98.433594 261.625 98.894531 260.585938 98.894531 Z M 260.585938 98.894531 " fill-opacity="1" fill-rule="nonzero"/></g><path fill="#ffffff" d="M 169.457031 95.570312 C 164.65625 95.570312 159.867188 94.554688 155.355469 92.527344 L 152.175781 91.101562 L 180.398438 28.527344 L 183.578125 29.953125 C 200.851562 37.722656 208.566406 58.082031 200.78125 75.335938 C 197.007812 83.6875 190.207031 90.082031 181.625 93.328125 C 177.679688 94.824219 173.566406 95.570312 169.457031 95.570312 Z M 161.484375 87.410156 C 167.261719 89.1875 173.429688 88.996094 179.167969 86.820312 C 186.007812 84.234375 191.433594 79.136719 194.4375 72.472656 C 200.152344 59.796875 195.371094 45.015625 183.804688 37.921875 Z M 197.617188 73.910156 Z M 197.617188 73.910156 " fill-opacity="1" fill-rule="nonzero"/><path fill="#ffffff" d="M 194.394531 75.855469 C 193.949219 75.855469 193.496094 75.769531 193.054688 75.585938 L 168.28125 65.285156 C 166.503906 64.546875 165.660156 62.511719 166.398438 60.734375 C 167.140625 58.960938 169.175781 58.125 170.953125 58.855469 L 195.726562 69.15625 C 197.503906 69.898438 198.339844 71.933594 197.609375 73.707031 C 197.0625 75.046875 195.761719 75.855469 194.394531 75.855469 Z M 194.394531 75.855469 " fill-opacity="1" fill-rule="nonzero"/><path fill="#ffffff" d="M 174.550781 92.039062 C 173.359375 92.039062 172.191406 91.421875 171.539062 90.316406 L 162.921875 75.632812 C 161.949219 73.96875 162.503906 71.835938 164.167969 70.871094 C 165.832031 69.898438 167.96875 70.453125 168.933594 72.117188 L 177.546875 86.800781 C 178.523438 88.464844 177.964844 90.59375 176.304688 91.5625 C 175.761719 91.882812 175.152344 92.039062 174.550781 92.039062 Z M 174.550781 92.039062 " fill-opacity="1" fill-rule="nonzero"/><path fill="#ffffff" d="M 176.417969 54.113281 C 174.890625 54.113281 173.488281 53.105469 173.0625 51.558594 C 172.546875 49.703125 173.636719 47.789062 175.492188 47.277344 L 191.949219 42.734375 C 193.804688 42.222656 195.71875 43.308594 196.234375 45.164062 C 196.746094 47.015625 195.65625 48.929688 193.804688 49.441406 L 177.347656 53.984375 C 177.035156 54.070312 176.722656 54.113281 176.417969 54.113281 Z M 176.417969 54.113281 " fill-opacity="1" fill-rule="nonzero"/><path fill="#ffffff" d="M 137.339844 62.910156 C 129.03125 62.910156 122.269531 56.160156 122.269531 47.859375 C 122.269531 39.558594 129.03125 32.808594 137.339844 32.808594 C 145.648438 32.808594 152.410156 39.558594 152.410156 47.859375 C 152.410156 56.160156 145.648438 62.910156 137.339844 62.910156 Z M 137.339844 39.757812 C 132.871094 39.757812 129.238281 43.386719 129.238281 47.851562 C 129.238281 52.3125 132.871094 55.941406 137.339844 55.941406 C 141.808594 55.941406 145.441406 52.3125 145.441406 47.851562 C 145.441406 43.386719 141.808594 39.757812 137.339844 39.757812 Z M 137.339844 39.757812 " fill-opacity="1" fill-rule="nonzero"/><path fill="#ffffff" d="M 237.738281 186.683594 L 238.191406 182.984375 L 255.648438 178.652344 L 255.648438 184.636719 L 246.695312 188.273438 Z M 237.738281 186.683594 " fill-opacity="1" fill-rule="nonzero"/></svg>