<svg xmlns="http://www.w3.org/2000/svg" xmlns:xlink="http://www.w3.org/1999/xlink" width="500" zoomAndPan="magnify" viewBox="0 0 375 374.999991" height="500" preserveAspectRatio="xMidYMid meet" version="1.0"><defs><clipPath id="ef05df52cc"><path d="M 0 56.25 L 375 56.25 L 375 318.75 L 0 318.75 Z M 0 56.25 " clip-rule="nonzero"/></clipPath></defs><g clip-path="url(#ef05df52cc)"><path fill="#ffffff" d="M 343.75 56.25 C 326.226562 56.25 312.5 75.46875 312.5 100 C 312.5 121.527344 323.070312 138.957031 337.5 142.90625 L 337.5 312.5 C 337.5 315.953125 340.296875 318.75 343.75 318.75 C 347.203125 318.75 350 315.953125 350 312.5 L 350 142.90625 C 364.429688 138.957031 375 121.527344 375 100 C 375 75.46875 361.273438 56.25 343.75 56.25 Z M 343.75 131.25 C 333.585938 131.25 325 116.941406 325 100 C 325 83.058594 333.585938 68.75 343.75 68.75 C 353.914062 68.75 362.5 83.058594 362.5 100 C 362.5 116.941406 353.914062 131.25 343.75 131.25 Z M 187.5 56.25 C 115.128906 56.25 56.25 115.128906 56.25 187.5 C 56.25 259.871094 115.128906 318.75 187.5 318.75 C 259.871094 318.75 318.75 259.871094 318.75 187.5 C 318.75 115.128906 259.871094 56.25 187.5 56.25 Z M 187.5 306.25 C 122.019531 306.25 68.75 252.980469 68.75 187.5 C 68.75 122.019531 122.019531 68.75 187.5 68.75 C 252.980469 68.75 306.25 122.019531 306.25 187.5 C 306.25 252.980469 252.980469 306.25 187.5 306.25 Z M 187.5 106.25 C 142.699219 106.25 106.25 142.699219 106.25 187.5 C 106.25 190.953125 103.453125 193.75 100 193.75 C 96.546875 193.75 93.75 190.953125 93.75 187.5 C 93.75 135.804688 135.804688 93.75 187.5 93.75 C 190.953125 93.75 193.75 96.546875 193.75 100 C 193.75 103.453125 190.953125 106.25 187.5 106.25 Z M 275 181.25 C 278.453125 181.25 281.25 184.046875 281.25 187.5 C 281.25 239.195312 239.195312 281.25 187.5 281.25 C 184.046875 281.25 181.25 278.453125 181.25 275 C 181.25 271.546875 184.046875 268.75 187.5 268.75 C 232.300781 268.75 268.75 232.300781 268.75 187.5 C 268.75 184.046875 271.546875 181.25 275 181.25 Z M 181.25 231.25 C 181.25 234.703125 184.046875 237.5 187.5 237.5 C 190.953125 237.5 193.75 234.703125 193.75 231.25 L 193.75 211.882812 C 217.480469 208.929688 233.660156 200.417969 241.886719 186.53125 C 254.011719 166.058594 243.65625 142.214844 243.210938 141.210938 C 242.003906 138.492188 239.046875 137.003906 236.144531 137.648438 C 204.394531 144.703125 191.121094 163.171875 185.582031 177.421875 C 185.332031 178.0625 185.097656 178.703125 184.875 179.335938 C 183.203125 177.011719 181.21875 174.753906 178.859375 172.667969 C 168.726562 163.722656 154.550781 160.324219 136.722656 162.546875 C 133.925781 162.898438 131.710938 165.074219 131.3125 167.867188 C 131.199219 168.652344 128.703125 187.3125 141.621094 200.636719 C 149.660156 208.933594 161.546875 213.109375 177.050781 213.109375 C 178.417969 213.109375 179.824219 213.066406 181.25 213.003906 Z M 233.441406 151.238281 C 235.265625 157.878906 237.183594 170.011719 231.089844 180.234375 C 225.054688 190.351562 212.449219 196.753906 193.5625 199.308594 C 194.078125 187.277344 199.277344 161.203125 233.441406 151.238281 Z M 150.671875 192.015625 C 145.273438 186.5 143.882812 179.210938 143.609375 174.472656 C 155.105469 173.878906 164.132812 176.390625 170.503906 181.964844 C 176.898438 187.566406 179.488281 195.304688 180.539062 200.535156 C 166.847656 201.15625 156.820312 198.296875 150.671875 192.015625 Z M 62.5 112.5 L 62.5 62.5 C 62.5 59.046875 59.703125 56.25 56.25 56.25 C 52.796875 56.25 50 59.046875 50 62.5 L 50 93.75 L 37.5 93.75 L 37.5 62.5 C 37.5 59.046875 34.703125 56.25 31.25 56.25 C 27.796875 56.25 25 59.046875 25 62.5 L 25 93.75 L 12.5 93.75 L 12.5 62.5 C 12.5 59.046875 9.703125 56.25 6.25 56.25 C 2.796875 56.25 0 59.046875 0 62.5 L 0 112.5 C 0 127.589844 10.753906 140.21875 25 143.121094 L 25 312.5 C 25 315.953125 27.796875 318.75 31.25 318.75 C 34.703125 318.75 37.5 315.953125 37.5 312.5 L 37.5 143.121094 C 51.746094 140.21875 62.5 127.589844 62.5 112.5 Z M 50 112.5 C 50 122.839844 41.589844 131.25 31.25 131.25 C 20.910156 131.25 12.5 122.839844 12.5 112.5 L 12.5 106.25 L 50 106.25 Z M 50 112.5 " fill-opacity="1" fill-rule="nonzero"/></g></svg>