<svg xmlns="http://www.w3.org/2000/svg" xmlns:xlink="http://www.w3.org/1999/xlink" width="500" zoomAndPan="magnify" viewBox="0 0 375 374.999991" height="500" preserveAspectRatio="xMidYMid meet" version="1.0"><path fill="#ffffff" d="M 90.820312 275.390625 L 32.226562 275.390625 C 30.609375 275.390625 29.296875 276.699219 29.296875 278.320312 C 29.296875 279.941406 30.609375 281.25 32.226562 281.25 L 90.820312 281.25 C 92.4375 281.25 93.75 279.941406 93.75 278.320312 C 93.75 276.699219 92.4375 275.390625 90.820312 275.390625 Z M 90.820312 275.390625 " fill-opacity="1" fill-rule="nonzero"/><path fill="#ffffff" d="M 84.960938 292.96875 L 2.929688 292.96875 C 1.3125 292.96875 0 294.277344 0 295.898438 C 0 297.519531 1.3125 298.828125 2.929688 298.828125 L 84.960938 298.828125 C 86.578125 298.828125 87.890625 297.519531 87.890625 295.898438 C 87.890625 294.277344 86.578125 292.96875 84.960938 292.96875 Z M 84.960938 292.96875 " fill-opacity="1" fill-rule="nonzero"/><path fill="#ffffff" d="M 79.101562 310.546875 L 32.226562 310.546875 C 30.609375 310.546875 29.296875 311.855469 29.296875 313.476562 C 29.296875 315.097656 30.609375 316.40625 32.226562 316.40625 L 79.101562 316.40625 C 80.71875 316.40625 82.03125 315.097656 82.03125 313.476562 C 82.03125 311.855469 80.71875 310.546875 79.101562 310.546875 Z M 79.101562 310.546875 " fill-opacity="1" fill-rule="nonzero"/><path fill="#ffffff" d="M 240.234375 275.390625 C 238.613281 275.390625 237.304688 276.699219 237.304688 278.320312 C 237.304688 279.941406 238.613281 281.25 240.234375 281.25 L 322.265625 281.25 C 323.886719 281.25 325.195312 279.941406 325.195312 278.320312 C 325.195312 276.699219 323.886719 275.390625 322.265625 275.390625 Z M 240.234375 275.390625 " fill-opacity="1" fill-rule="nonzero"/><path fill="#ffffff" d="M 372.070312 292.96875 L 246.09375 292.96875 C 244.472656 292.96875 243.164062 294.277344 243.164062 295.898438 C 243.164062 297.519531 244.472656 298.828125 246.09375 298.828125 L 372.070312 298.828125 C 373.691406 298.828125 375 297.519531 375 295.898438 C 375 294.277344 373.691406 292.96875 372.070312 292.96875 Z M 372.070312 292.96875 " fill-opacity="1" fill-rule="nonzero"/><path fill="#ffffff" d="M 322.265625 310.546875 L 251.953125 310.546875 C 250.332031 310.546875 249.023438 311.855469 249.023438 313.476562 C 249.023438 315.097656 250.332031 316.40625 251.953125 316.40625 L 322.265625 316.40625 C 323.886719 316.40625 325.195312 315.097656 325.195312 313.476562 C 325.195312 311.855469 323.886719 310.546875 322.265625 310.546875 Z M 322.265625 310.546875 " fill-opacity="1" fill-rule="nonzero"/><path fill="#ffffff" d="M 216.886719 266.6875 C 216.886719 266.585938 216.855469 266.484375 216.84375 266.382812 L 262.5 211.871094 C 262.945312 211.359375 273.355469 199.179688 272.398438 187.316406 C 272.011719 182.519531 269.867188 178.460938 266.03125 175.25 C 254.074219 165.257812 234.574219 150.753906 217.253906 138.183594 C 217.066406 138.1875 216.875 138.203125 216.6875 138.203125 C 212.28125 138.203125 207.949219 137.363281 203.921875 135.78125 C 223.085938 149.554688 248.085938 167.886719 262.273438 179.746094 C 264.894531 181.9375 266.296875 184.5625 266.554688 187.777344 C 267.324219 197.179688 258.160156 207.933594 258.042969 208.074219 L 214.742188 259.765625 L 203.863281 227.878906 C 203.734375 227.507812 203.539062 227.167969 203.277344 226.878906 C 203.125 226.707031 188.671875 209.855469 201.78125 174.574219 L 230.242188 195.855469 L 217.339844 212.609375 C 216.351562 213.890625 216.589844 215.730469 217.871094 216.71875 C 219.15625 217.707031 220.996094 217.464844 221.980469 216.183594 L 236.695312 197.074219 C 237.175781 196.453125 237.382812 195.664062 237.277344 194.890625 C 237.171875 194.113281 236.757812 193.410156 236.128906 192.941406 L 202.207031 167.574219 C 201.484375 167.035156 200.554688 166.855469 199.671875 167.097656 C 198.800781 167.339844 198.089844 167.972656 197.746094 168.808594 C 182.152344 206.835938 195.804688 226.867188 198.488281 230.273438 L 210.625 265.84375 C 210.632812 266.09375 235.320312 348.875 235.320312 348.875 C 236.503906 352.757812 236.121094 356.925781 234.269531 360.316406 C 232.585938 363.398438 229.847656 365.605469 226.554688 366.539062 C 225.402344 366.867188 224.203125 367.03125 222.992188 367.03125 C 216.652344 367.03125 210.703125 362.609375 208.527344 356.273438 L 167.058594 235.800781 C 166.632812 234.570312 165.460938 233.765625 164.148438 233.828125 C 162.847656 233.890625 161.742188 234.804688 161.441406 236.070312 L 132.671875 356.007812 C 131.085938 364.871094 125.734375 369.851562 118.46875 369.054688 L 114.269531 368.589844 C 110.554688 368.183594 107.316406 366.363281 105.152344 363.460938 C 102.917969 360.46875 102.078125 356.683594 102.78125 352.804688 C 105.363281 338.539062 122.835938 250.78125 126.289062 216.941406 C 126.875 211.195312 128.9375 199.503906 131.324219 185.964844 C 135.535156 162.058594 140.3125 134.960938 139.804688 125.207031 L 140.632812 40.566406 C 140.632812 37.835938 142.375 36.011719 145.933594 35.113281 L 240.953125 6.574219 C 242.46875 6.101562 244.007812 5.859375 245.523438 5.859375 C 251.382812 5.859375 256.160156 9.410156 257.410156 14.695312 C 259.085938 21.761719 254.21875 29.613281 246.558594 32.199219 L 174.183594 56.65625 C 171.34375 57.613281 169.464844 60.605469 169.816406 63.609375 L 175.394531 111.664062 C 175.679688 114.105469 177.335938 116.898438 179.335938 118.304688 C 181.453125 119.792969 185.445312 122.605469 190.621094 126.28125 C 187.710938 122.871094 185.476562 118.875 184.035156 114.445312 C 183.539062 114.097656 183.082031 113.777344 182.703125 113.511719 C 182.070312 113.066406 181.304688 111.765625 181.210938 110.984375 L 175.632812 62.933594 C 175.605469 62.6875 175.871094 62.269531 176.058594 62.207031 L 248.4375 37.75 C 258.882812 34.222656 265.464844 23.273438 263.109375 13.347656 C 261.222656 5.363281 254.15625 0 245.523438 0 C 243.414062 0 241.289062 0.332031 239.234375 0.972656 L 144.375 29.464844 C 138.363281 30.976562 134.773438 35.128906 134.773438 40.539062 L 133.949219 125.328125 C 134.429688 134.597656 129.503906 162.515625 125.550781 184.949219 C 123.144531 198.597656 121.070312 210.386719 120.460938 216.34375 C 117.035156 249.914062 99.609375 337.445312 97.015625 351.757812 C 96.019531 357.257812 97.242188 362.65625 100.457031 366.964844 C 103.601562 371.183594 108.28125 373.828125 113.628906 374.417969 L 117.824219 374.878906 C 118.574219 374.960938 119.300781 375 120.011719 375 C 129.398438 375 136.457031 368.121094 138.402344 357.207031 L 164.792969 247.21875 L 202.988281 358.175781 C 205.960938 366.839844 214.183594 372.890625 222.992188 372.890625 C 224.746094 372.890625 226.480469 372.652344 228.148438 372.175781 C 232.96875 370.8125 236.96875 367.597656 239.410156 363.125 C 242.011719 358.363281 242.5625 352.550781 240.933594 347.183594 Z M 216.886719 266.6875 " fill-opacity="1" fill-rule="nonzero"/><path fill="#ffffff" d="M 236.96875 70.570312 C 232.703125 68.152344 227.792969 66.875 222.769531 66.875 C 210.964844 66.875 199.613281 73.613281 193.144531 84.460938 C 188.265625 92.648438 186.78125 102.308594 189.074219 110.96875 C 191.09375 118.609375 195.855469 124.886719 202.488281 128.648438 C 206.753906 131.066406 211.664062 132.34375 216.6875 132.34375 C 228.5 132.34375 239.84375 125.605469 246.300781 114.761719 C 251.183594 106.582031 252.671875 96.921875 250.386719 88.257812 C 248.367188 80.617188 243.605469 74.335938 236.96875 70.570312 Z M 241.265625 111.761719 C 235.863281 120.84375 226.445312 126.484375 216.6875 126.484375 C 212.617188 126.484375 208.8125 125.496094 205.378906 123.550781 C 200.132812 120.574219 196.351562 115.574219 194.738281 109.472656 C 192.847656 102.324219 194.101562 94.300781 198.179688 87.460938 C 203.59375 78.375 213.015625 72.734375 222.769531 72.734375 C 226.839844 72.734375 230.644531 73.71875 234.078125 75.664062 C 239.332031 78.648438 243.109375 83.652344 244.71875 89.757812 C 246.605469 96.902344 245.351562 104.921875 241.265625 111.761719 Z M 241.265625 111.761719 " fill-opacity="1" fill-rule="nonzero"/><path fill="#ffffff" d="M 302.835938 161.628906 C 303.308594 161.914062 303.832031 162.046875 304.347656 162.046875 C 305.339844 162.046875 306.308594 161.542969 306.859375 160.632812 C 307.910156 158.890625 308.902344 157.160156 309.835938 155.433594 C 310.609375 154.011719 310.082031 152.234375 308.660156 151.460938 C 307.234375 150.691406 305.460938 151.214844 304.6875 152.636719 C 303.792969 154.285156 302.84375 155.941406 301.839844 157.605469 C 301.003906 158.988281 301.453125 160.789062 302.835938 161.628906 Z M 302.835938 161.628906 " fill-opacity="1" fill-rule="nonzero"/><path fill="#ffffff" d="M 304.941406 60.085938 C 305.464844 61.082031 306.484375 61.652344 307.539062 61.652344 C 307.996094 61.652344 308.460938 61.542969 308.898438 61.316406 C 310.328125 60.5625 310.882812 58.792969 310.125 57.359375 C 309.183594 55.566406 308.214844 53.820312 307.21875 52.117188 C 306.40625 50.722656 304.613281 50.246094 303.210938 51.066406 C 301.816406 51.882812 301.347656 53.675781 302.160156 55.074219 C 303.109375 56.699219 304.039062 58.371094 304.941406 60.085938 Z M 304.941406 60.085938 " fill-opacity="1" fill-rule="nonzero"/><path fill="#ffffff" d="M 314.867188 86.734375 C 315.273438 88.566406 315.628906 90.429688 315.929688 92.316406 C 316.164062 93.757812 317.40625 94.78125 318.820312 94.78125 C 318.976562 94.78125 319.128906 94.769531 319.289062 94.746094 C 320.886719 94.488281 321.972656 92.984375 321.714844 91.390625 C 321.394531 89.386719 321.019531 87.414062 320.589844 85.46875 C 320.238281 83.886719 318.667969 82.878906 317.097656 83.238281 C 315.515625 83.589844 314.519531 85.152344 314.867188 86.734375 Z M 314.867188 86.734375 " fill-opacity="1" fill-rule="nonzero"/><path fill="#ffffff" d="M 309.761719 70.445312 C 310.46875 72.195312 311.140625 73.976562 311.769531 75.789062 C 312.1875 77.003906 313.320312 77.765625 314.539062 77.765625 C 314.855469 77.765625 315.179688 77.710938 315.492188 77.601562 C 317.023438 77.074219 317.835938 75.40625 317.308594 73.875 C 316.644531 71.964844 315.941406 70.085938 315.191406 68.246094 C 314.585938 66.746094 312.863281 66.023438 311.378906 66.632812 C 309.878906 67.238281 309.15625 68.949219 309.761719 70.445312 Z M 309.761719 70.445312 " fill-opacity="1" fill-rule="nonzero"/><path fill="#ffffff" d="M 317.046875 129.625 C 317.265625 129.675781 317.480469 129.695312 317.695312 129.695312 C 319.035156 129.695312 320.242188 128.773438 320.550781 127.414062 C 321.003906 125.421875 321.382812 123.445312 321.699219 121.484375 C 321.957031 119.886719 320.871094 118.382812 319.273438 118.125 C 317.664062 117.855469 316.171875 118.953125 315.914062 120.550781 C 315.617188 122.390625 315.257812 124.25 314.835938 126.121094 C 314.476562 127.699219 315.46875 129.269531 317.046875 129.625 Z M 317.046875 129.625 " fill-opacity="1" fill-rule="nonzero"/><path fill="#ffffff" d="M 317.011719 103.601562 C 317.039062 104.535156 317.054688 105.476562 317.054688 106.421875 C 317.054688 107.363281 317.039062 108.308594 317.007812 109.261719 C 316.949219 110.878906 318.214844 112.234375 319.832031 112.289062 C 319.867188 112.292969 319.902344 112.292969 319.9375 112.292969 C 321.507812 112.292969 322.804688 111.046875 322.859375 109.464844 C 322.898438 108.445312 322.914062 107.429688 322.914062 106.421875 C 322.914062 105.414062 322.898438 104.40625 322.863281 103.410156 C 322.808594 101.789062 321.3125 100.496094 319.84375 100.578125 C 318.222656 100.628906 316.957031 101.984375 317.011719 103.601562 Z M 317.011719 103.601562 " fill-opacity="1" fill-rule="nonzero"/><path fill="#ffffff" d="M 273.054688 19.660156 C 273.613281 20.160156 274.3125 20.40625 275.007812 20.40625 C 275.8125 20.40625 276.613281 20.074219 277.191406 19.425781 C 278.269531 18.21875 278.164062 16.371094 276.957031 15.289062 C 274.125 12.753906 272.359375 11.402344 272.285156 11.347656 C 271.007812 10.363281 269.167969 10.605469 268.179688 11.890625 C 267.199219 13.175781 267.441406 15.015625 268.722656 16 C 268.742188 16.011719 270.402344 17.289062 273.054688 19.660156 Z M 273.054688 19.660156 " fill-opacity="1" fill-rule="nonzero"/><path fill="#ffffff" d="M 282.835938 189.75 C 283.609375 189.75 284.378906 189.449219 284.953125 188.84375 C 286.34375 187.386719 287.691406 185.933594 288.996094 184.480469 C 290.078125 183.277344 289.976562 181.425781 288.773438 180.34375 C 287.5625 179.265625 285.714844 179.359375 284.632812 180.570312 C 283.371094 181.976562 282.066406 183.386719 280.714844 184.800781 C 279.597656 185.96875 279.640625 187.824219 280.8125 188.941406 C 281.378906 189.484375 282.109375 189.75 282.835938 189.75 Z M 282.835938 189.75 " fill-opacity="1" fill-rule="nonzero"/><path fill="#ffffff" d="M 311.675781 137.035156 C 311.050781 138.792969 310.371094 140.566406 309.621094 142.347656 C 309 143.839844 309.703125 145.554688 311.195312 146.179688 C 311.566406 146.335938 311.949219 146.410156 312.328125 146.410156 C 313.46875 146.410156 314.5625 145.730469 315.03125 144.609375 C 315.816406 142.722656 316.539062 140.851562 317.195312 138.992188 C 317.738281 137.464844 316.9375 135.792969 315.414062 135.25 C 313.882812 134.710938 312.214844 135.511719 311.675781 137.035156 Z M 311.675781 137.035156 " fill-opacity="1" fill-rule="nonzero"/><path fill="#ffffff" d="M 294.34375 176.488281 C 295.214844 176.488281 296.074219 176.101562 296.652344 175.363281 C 297.902344 173.765625 299.101562 172.175781 300.246094 170.59375 C 301.195312 169.285156 300.902344 167.453125 299.589844 166.503906 C 298.285156 165.554688 296.449219 165.847656 295.496094 167.160156 C 294.394531 168.683594 293.246094 170.214844 292.042969 171.75 C 291.042969 173.023438 291.265625 174.863281 292.539062 175.863281 C 293.078125 176.285156 293.710938 176.488281 294.34375 176.488281 Z M 294.34375 176.488281 " fill-opacity="1" fill-rule="nonzero"/><path fill="#ffffff" d="M 295.949219 45.421875 C 296.523438 46.234375 297.429688 46.667969 298.351562 46.667969 C 298.929688 46.667969 299.519531 46.492188 300.03125 46.132812 C 301.355469 45.203125 301.675781 43.375 300.746094 42.050781 C 299.570312 40.382812 298.390625 38.773438 297.207031 37.226562 C 296.222656 35.941406 294.390625 35.695312 293.101562 36.679688 C 291.816406 37.660156 291.570312 39.5 292.550781 40.785156 C 293.6875 42.269531 294.824219 43.816406 295.949219 45.421875 Z M 295.949219 45.421875 " fill-opacity="1" fill-rule="nonzero"/><path fill="#ffffff" d="M 285.222656 31.902344 C 285.800781 32.550781 286.609375 32.886719 287.414062 32.886719 C 288.109375 32.886719 288.800781 32.644531 289.359375 32.148438 C 290.570312 31.074219 290.679688 29.222656 289.605469 28.011719 C 288.214844 26.445312 286.859375 24.976562 285.554688 23.617188 C 284.433594 22.445312 282.578125 22.410156 281.414062 23.527344 C 280.242188 24.644531 280.203125 26.5 281.320312 27.667969 C 282.578125 28.976562 283.886719 30.390625 285.222656 31.902344 Z M 285.222656 31.902344 " fill-opacity="1" fill-rule="nonzero"/><path fill="#ffffff" d="M 216.796875 222.65625 C 216.796875 223.042969 216.722656 223.417969 216.574219 223.777344 C 216.425781 224.136719 216.214844 224.453125 215.9375 224.726562 C 215.664062 225.003906 215.347656 225.214844 214.988281 225.363281 C 214.628906 225.511719 214.253906 225.585938 213.867188 225.585938 C 213.480469 225.585938 213.105469 225.511719 212.746094 225.363281 C 212.386719 225.214844 212.070312 225.003906 211.796875 224.726562 C 211.519531 224.453125 211.308594 224.136719 211.160156 223.777344 C 211.011719 223.417969 210.9375 223.042969 210.9375 222.65625 C 210.9375 222.269531 211.011719 221.894531 211.160156 221.535156 C 211.308594 221.175781 211.519531 220.859375 211.796875 220.585938 C 212.070312 220.308594 212.386719 220.097656 212.746094 219.949219 C 213.105469 219.800781 213.480469 219.726562 213.867188 219.726562 C 214.253906 219.726562 214.628906 219.800781 214.988281 219.949219 C 215.347656 220.097656 215.664062 220.308594 215.9375 220.585938 C 216.214844 220.859375 216.425781 221.175781 216.574219 221.535156 C 216.722656 221.894531 216.796875 222.269531 216.796875 222.65625 Z M 216.796875 222.65625 " fill-opacity="1" fill-rule="nonzero"/><path fill="#ffffff" d="M 158.203125 137.695312 C 158.203125 138.082031 158.128906 138.457031 157.980469 138.816406 C 157.832031 139.175781 157.621094 139.492188 157.34375 139.765625 C 157.070312 140.042969 156.753906 140.253906 156.394531 140.402344 C 156.035156 140.550781 155.660156 140.625 155.273438 140.625 C 154.886719 140.625 154.511719 140.550781 154.152344 140.402344 C 153.792969 140.253906 153.476562 140.042969 153.203125 139.765625 C 152.925781 139.492188 152.714844 139.175781 152.566406 138.816406 C 152.417969 138.457031 152.34375 138.082031 152.34375 137.695312 C 152.34375 137.308594 152.417969 136.933594 152.566406 136.574219 C 152.714844 136.214844 152.925781 135.898438 153.203125 135.625 C 153.476562 135.347656 153.792969 135.136719 154.152344 134.988281 C 154.511719 134.839844 154.886719 134.765625 155.273438 134.765625 C 155.660156 134.765625 156.035156 134.839844 156.394531 134.988281 C 156.753906 135.136719 157.070312 135.347656 157.34375 135.625 C 157.621094 135.898438 157.832031 136.214844 157.980469 136.574219 C 158.128906 136.933594 158.203125 137.308594 158.203125 137.695312 Z M 158.203125 137.695312 " fill-opacity="1" fill-rule="nonzero"/><path fill="#ffffff" d="M 149.492188 151.664062 C 141.707031 184.386719 140.667969 204.109375 140.628906 204.933594 C 140.550781 206.550781 141.796875 207.925781 143.410156 208.003906 C 143.460938 208.003906 143.507812 208.007812 143.558594 208.007812 C 145.109375 208.007812 146.402344 206.789062 146.480469 205.222656 C 146.488281 205.027344 147.546875 185.160156 155.195312 153.023438 C 155.566406 151.449219 154.59375 149.867188 153.023438 149.492188 C 151.453125 149.125 149.867188 150.089844 149.492188 151.664062 Z M 149.492188 151.664062 " fill-opacity="1" fill-rule="nonzero"/></svg>