<svg xmlns="http://www.w3.org/2000/svg" xmlns:xlink="http://www.w3.org/1999/xlink" width="500" zoomAndPan="magnify" viewBox="0 0 375 374.999991" height="500" preserveAspectRatio="xMidYMid meet" version="1.0"><path fill="#ffffff" d="M 137.894531 175.019531 L 175.332031 175.019531 L 175.332031 162.542969 L 137.894531 162.542969 L 137.894531 175.019531 " fill-opacity="1" fill-rule="nonzero"/><path fill="#ffffff" d="M 187.8125 175.019531 L 281.40625 175.019531 L 281.40625 162.542969 L 187.8125 162.542969 L 187.8125 175.019531 " fill-opacity="1" fill-rule="nonzero"/><path fill="#ffffff" d="M 187.8125 212.457031 L 243.96875 212.457031 L 243.96875 199.980469 L 187.8125 199.980469 L 187.8125 212.457031 " fill-opacity="1" fill-rule="nonzero"/><path fill="#ffffff" d="M 362.519531 312.292969 L 87.976562 312.292969 L 87.976562 50.230469 L 228.90625 50.230469 L 170.921875 108.214844 C 168.484375 110.652344 168.484375 114.597656 170.921875 117.035156 L 189.640625 135.753906 C 190.859375 136.972656 192.441406 137.582031 194.050781 137.582031 C 195.660156 137.582031 197.246094 136.972656 198.464844 135.753906 L 260.175781 74.042969 C 263.027344 74.722656 265.929688 75.1875 268.925781 75.1875 C 285.183594 75.1875 299.027344 64.753906 304.171875 50.230469 L 362.519531 50.230469 Z M 279.433594 360.796875 L 147.109375 324.769531 L 289.230469 324.769531 Z M 75.5 64.683594 L 75.5 305.273438 L 14.515625 288.675781 Z M 90.441406 37.75 L 82.835938 37.75 L 83.347656 35.824219 Z M 246.453125 67.703125 C 246.917969 68.046875 247.453125 68.3125 247.941406 68.628906 L 194.050781 122.519531 L 184.15625 112.625 L 237.972656 58.808594 C 240.261719 62.148438 243.089844 65.167969 246.453125 67.703125 Z M 268.925781 12.792969 C 282.699219 12.792969 293.886719 23.980469 293.886719 37.75 C 293.886719 51.519531 282.699219 62.707031 268.925781 62.707031 C 263.46875 62.707031 258.300781 60.976562 253.960938 57.734375 C 247.601562 52.957031 243.96875 45.671875 243.96875 37.75 C 243.96875 23.980469 255.15625 12.792969 268.925781 12.792969 Z M 368.761719 37.75 L 306.363281 37.75 C 306.363281 17.105469 289.570312 0.3125 268.925781 0.3125 C 248.28125 0.3125 231.488281 17.105469 231.488281 37.75 L 137.96875 37.75 L 80.617188 22.125 C 77.304688 21.222656 73.867188 23.199219 72.964844 26.511719 L 0.84375 291.429688 C -0.0585938 294.742188 1.890625 298.179688 5.230469 299.082031 L 75.5 318.214844 L 75.5 318.53125 C 75.5 321.96875 78.300781 324.769531 81.738281 324.769531 L 99.605469 324.769531 L 282.160156 374.46875 C 282.722656 374.613281 283.257812 374.6875 283.820312 374.6875 C 286.546875 374.6875 289.058594 372.859375 289.816406 370.082031 L 302.171875 324.769531 L 368.761719 324.769531 C 372.195312 324.769531 375 321.96875 375 318.53125 L 375 43.988281 C 375 40.550781 372.195312 37.75 368.761719 37.75 " fill-opacity="1" fill-rule="nonzero"/></svg>